PathFileType	4	(X/Y/Z)	Patient4_TMGait_0pt6_02_right_07.trc.trc
DataRate	CameraRate	NumFrames	NumMarkers	Units	OrigDataRate	OrigDataStartFrame	OrigNumFrames
80.000000000000	80.000000000000	4	33	mm	80.000000000000	124	       141
Frame#	Time	Sacral			L.Shoulder			Chest			R.Shoulder			Neck			R.ASIS			L.ASIS			R.Thigh.Superior			R.Thigh.Lateral			R.Thigh.Inferior			R.Patella			L.Thigh.Superior			L.Thigh.Lateral			L.Thigh.Inferior			L.Patella			L.Shank.Superior			L.Shank.Lateral			L.Shank.Inferior			R.Shank.Superior			R.Shank.Lateral			R.Shank.Inferior			R.Heel			R.Midfoot.Superior			R.Midfoot.Lateral			R.Toe			L.Heel			L.Midfoot.Lateral			L.Midfoot.Superior			L.Toe			L.Elbow			L.Wrist			R.Elbow			R.Wrist			
		X1	Y1	Z1	X2	Y2	Z2	X3	Y3	Z3	X4	Y4	Z4	X5	Y5	Z5	X6	Y6	Z6	X7	Y7	Z7	X8	Y8	Z8	X9	Y9	Z9	X10	Y10	Z10	X11	Y11	Z11	X12	Y12	Z12	X13	Y13	Z13	X14	Y14	Z14	X15	Y15	Z15	X16	Y16	Z16	X17	Y17	Z17	X18	Y18	Z18	X19	Y19	Z19	X20	Y20	Z20	X21	Y21	Z21	X22	Y22	Z22	X23	Y23	Z23	X24	Y24	Z24	X25	Y25	Z25	X26	Y26	Z26	X27	Y27	Z27	X28	Y28	Z28	X29	Y29	Z29	X30	Y30	Z30	X31	Y31	Z31	X32	Y32	Z32	X33	Y33	Z33	

124	9.387500000000	730.646529013631	997.456959937860	426.960093488096	910.432461899605	1413.144333482243	226.775570980382	1012.241832702754	1351.602709819924	390.960272918676	928.762365565404	1436.296325355816	559.492791558548	894.774588360493	1481.947727045927	376.484112634137	955.216272316029	928.254939803440	543.538098396555	997.620593762795	997.033801413684	254.884634453895	1019.271266744624	746.673702137894	517.491966937637	964.263156128697	625.081413565570	583.820891068773	1051.615890374069	586.710461819202	503.002316939009	1079.581438394363	509.233379067517	514.317329423158	935.080226638591	725.429771918219	292.810968033243	807.144011217371	636.332584410228	242.595386660229	868.221804718946	540.083069820314	300.077812919910	851.045419182781	474.080075768832	311.500121239891	816.382471118515	410.506461707821	307.855418850169	707.826405814635	307.099415466593	270.322941116208	753.823729194835	191.641311959377	339.605597698976	1073.022792975003	422.847782715659	522.056819589845	1032.014409204724	302.182054668933	579.376184596997	1111.501029986669	227.018369573751	525.932008478040	1038.221519579898	40.219861843545	488.924341005416	1197.399625842497	117.499322939703	532.698875672908	1120.585313596133	40.670694350962	564.211160661777	1322.078605726246	83.194133583791	560.116230783212	619.359822090773	41.590609421393	401.442577373483	685.629094498311	35.519519208111	314.789320792249	771.810355903460	95.984195564830	331.923376940668	896.279938124970	41.368418659206	293.700944326802	934.130662779915	1063.015382279724	108.067721580096	1186.678253803838	1023.020760113098	128.442511527109	795.446002876199	1128.045342172802	693.433426070623	793.946084720207	866.995357724979	715.200971449259	
125	9.400000000000	733.138696904450	996.139378534488	428.819195202452	910.899208983877	1411.967051735594	228.350735607346	1013.289311053884	1351.119325679205	392.422858043114	929.449512490412	1435.382380933705	561.069050299375	895.354352592942	1480.850408347289	377.961434369173	958.225842830869	926.769483724431	544.661617283792	998.047975770311	995.873338918689	257.017330572156	1022.128809842451	744.497047284733	518.008045555779	965.173391657036	623.304187541706	583.520879005636	1051.954958664517	584.795698992532	502.480687793185	1078.503140608025	506.852653166322	513.167907337818	936.546474157532	724.216572342839	293.294581003440	807.711498855722	635.830214313339	243.620084833137	868.390296671933	538.903159209458	300.609150138307	850.742399987209	472.422906740173	312.053805833085	814.824661597828	409.274433820148	308.381028545631	704.288559840526	307.845507478866	270.872966640110	748.389245595587	191.369342052432	339.656187023360	1071.560285393179	419.775063536558	520.849154490639	1029.259899536575	299.570270379543	578.137198792147	1107.186206810096	223.467937420866	524.187651710397	1029.929927453261	39.659620602061	487.712835937822	1191.213135062632	112.539514712375	529.943557821886	1112.336110803559	38.815755117649	562.946554599786	1315.130996571497	74.923552217159	557.635703093109	611.775556766073	42.486309699876	401.118817019593	678.176716403119	35.752836385838	314.661263299392	764.620750295292	96.031901768938	331.731185766756	888.916041418487	40.840678099635	293.634492828632	934.515982118718	1061.574164547151	109.770348494911	1186.932211720135	1020.756141656256	131.390286254953	798.825081589471	1125.980815075922	695.474766473394	804.100571066779	864.782731436401	716.262920825115	
126	9.412500000000	735.604256167132	995.176745950477	430.802673103980	911.448685064054	1411.152550291059	230.098976316745	1014.478270712870	1350.879943181240	393.980189783955	930.404085100495	1434.683231235026	562.809398417366	896.130877173382	1480.076131086932	379.631644427268	961.288192129025	925.677115503538	545.805273019012	997.711806729162	994.322505006457	259.380261101835	1025.231706522949	743.011526330807	518.397456121677	966.705588211063	622.245637105140	583.347841861499	1052.804288278635	583.662289138127	501.948654928284	1077.906615947949	505.080602426398	512.060264080006	938.244671583447	723.222602271854	293.878234203008	808.674045763133	635.347564124136	244.788382805461	869.168400171738	537.806467722114	301.258527268519	851.155179306752	470.702371865619	312.599107398437	813.785087739130	408.039110500446	308.962820873449	701.129701000742	308.808794537583	271.532854639612	743.182843691422	191.237874277103	339.719262195194	1070.596114720773	417.280605529466	519.813573840241	1027.021500836618	297.645351690313	577.349293518486	1103.054789490802	220.416316114107	522.687938413942	1021.401760554907	39.499655943393	486.959358836665	1184.826186202528	108.088880996319	527.424443464631	1103.964820197979	37.378508886836	562.043002195163	1308.031670257236	67.221926868946	555.263973322030	604.203880837146	43.763397123342	400.781934210947	670.717806809197	36.132352802274	314.529377263974	757.564292706967	96.105833608594	331.458858605602	881.553861533990	40.304056239765	293.556194325295	934.581558553334	1060.429502200434	111.647714196531	1186.693906366043	1017.431511857676	134.225864753299	802.863974475843	1123.894101259696	697.639932301571	815.382662718131	862.701528722174	717.323285961012	
127	9.425000000000	738.005083336385	994.640492267941	432.879159081772	912.129713650637	1410.777513193618	232.003213641358	1015.815682488796	1350.925073979895	395.628574668960	931.644518496843	1434.267532832717	564.694823579413	897.118763164239	1479.693787956249	381.480997070550	964.331196886992	925.053532607318	546.990816640799	996.634929275845	992.411579513048	261.939445581000	1028.462918769834	742.260356478320	518.690153328379	968.763353899911	621.911022838010	583.320354795634	1054.086543684750	583.295526082835	501.452217601916	1077.707701316318	503.926109929623	511.059781644776	940.178981167921	722.522405136218	294.608177401983	810.117435862843	634.898371015859	246.079758370450	870.702525534613	536.835638512610	302.009225628440	852.445566877219	468.936353473140	313.061004078920	813.385211183453	406.831340132845	309.548134622669	698.452803838690	310.064679455660	272.286295677222	738.287268924940	191.320417353651	339.765607632853	1070.055282868920	415.415471508235	519.002174205331	1025.276185636688	296.435775171472	577.036405401471	1099.153799382101	217.957319102400	521.475103912236	1012.968065000956	39.626875516222	486.594187544938	1178.364947946749	104.390414668665	525.282246943502	1095.749759977501	36.369352769009	561.483198396660	1300.948996524540	60.603786035072	553.187216110196	596.699139027696	45.578647780547	400.438483320398	663.276650775890	36.748689108693	314.400380206493	750.707386133572	96.228878749096	331.082998273071	874.187152676248	39.776834211656	293.474460214778	934.292511824567	1059.665537620725	113.713232457397	1185.878160758904	1013.100600261032	136.925792222177	807.558449678382	1121.887400140379	699.914174508297	827.726682379152	860.898383047873	718.380121836627	
